# xmcd
#
# Track frame offsets:
#	150
#	12670
#	21331
#	32166
#	42066
#	51793
#	61374
#	70374
#	81031
#	91347
#	101470
#	111685
#	122422
#	132150
#	143301
#	155638
#	165938
#	175234
#	184099
#	193906
#	204696
#	217018
#	226651
#	239114
#	247628
#	255653
#	266895
#	277712
#
# Disc length: 3852 seconds
#
# Revision: 0
# Processed by: cddbd v1.5.2PL0 Copyright (c) Steve Scherf et al.
# Submitted via: EasyCDDAExtractor 12.0.4.1
#
DISCID=8b0f0a1c
DTITLE=Various Artist - "Please, Give me something". The roots of the Stray C
DTITLE=ats
DYEAR=2010
DGENRE=Rockabilly
TTITLE0=The Nomads - Icky Poo
TTITLE1=Johnny Burnette and the Rock and Roll trio - Tear it up
TTITLE2=Lonesome Lee - Lonely travelin´
TTITLE3=Jimmy and Johnny - Sweet love on my mind
TTITLE4=Eddie Cochran - Somethin´ Else
TTITLE5=Lew Williams - Bop bop ba doo bop
TTITLE6=Warren Smith - Ubangi Stomp
TTITLE7=Eddie Cochran - Jannie, Jeannie, Jeannie
TTITLE8=Bill Allen - Please Give me Something
TTITLE9=Gene Vincent - Doble talkin´ Baby
TTITLE10=Ricky Nelson - My one desire
TTITLE11=Roy Montrell - (Everytime I Hear) That Mellow Saxophone
TTITLE12=Johnny Buernette and The Rock and Roll trio - Your baby blue eyes
TTITLE13=Wynonie Harris - ¿Wasn´t  that good
TTITLE14=The Wheels - Let´s  have a ball
TTITLE15=Johnny Burnnete and the Rock and Roll Trio - Rock Therapy
TTITLE16=Gene Vincent - Race with the Devil
TTITLE17=Buddy Holly and The Crickets - I´m looking for someone to love
TTITLE18=Chuck Berry - Beatiful Delilah
TTITLE19=Charlie Feathers - One hand lose
TTITLE20=Glen Glenn - Everybody´s movin´
TTITLE21=Eddie Bond - Slip, slip, slippin´in
TTITLE22=Carl Perkins - Your true love
TTITLE23=Ricky Nelson - Stood up
TTITLE24=Chuck Berry - Let´s it Rock
TTITLE25=Elvis Presley - Mystery Train
TTITLE26=Santo and Johnny - Sleep walk
TTITLE27=Chet Atkins - Hidden Charms
EXTD=
EXTT0=
EXTT1=
EXTT2=
EXTT3=
EXTT4=
EXTT5=
EXTT6=
EXTT7=
EXTT8=
EXTT9=
EXTT10=
EXTT11=
EXTT12=
EXTT13=
EXTT14=
EXTT15=
EXTT16=
EXTT17=
EXTT18=
EXTT19=
EXTT20=
EXTT21=
EXTT22=
EXTT23=
EXTT24=
EXTT25=
EXTT26=
EXTT27=
PLAYORDER=
